<svg xmlns="http://www.w3.org/2000/svg" id="logo" width="16.392" height="16.392" viewBox="0 0 16.392 16.392">
    <defs>
        <style>
            .cls-1{fill:#358bac}
        </style>
    </defs>
    <path id="Path_605" d="M14.225 1.349a.818.818 0 0 1 .818.818v12.058a.823.823 0 0 1-.818.818H2.168a.818.818 0 0 1-.818-.818V2.168a.814.814 0 0 1 .818-.818h12.057m0-1.349H2.168A2.168 2.168 0 0 0 0 2.168v12.057a2.172 2.172 0 0 0 2.168 2.168h12.057a2.177 2.177 0 0 0 2.168-2.168V2.168A2.172 2.172 0 0 0 14.225 0z" class="cls-1" data-name="Path 605"/>
    <path id="Path_606" d="M12.444 17.29h-.211c-.279 0-.373-.225-.216-.508l4.277-7.4a1.048 1.048 0 0 1 .8-.5h.206c.279 0 .373.225.211.5l-4.272 7.4a1.039 1.039 0 0 1-.795.508z" class="cls-1" data-name="Path 606" transform="translate(-6.571 -4.887)"/>
</svg>
